<?xml version="1.0" encoding="utf-8"?>
<!-- Generator: Adobe Illustrator 21.0.0, SVG Export Plug-In . SVG Version: 6.00 Build 0)  -->
<svg version="1.1" id="Layer_1" xmlns="http://www.w3.org/2000/svg" xmlns:xlink="http://www.w3.org/1999/xlink" x="0px" y="0px"
	 viewBox="0 0 231.6 79.1" style="enable-background:new 0 0 231.6 79.1;" xml:space="preserve">
<style type="text/css">
	.st0{fill:#FFFFFF;}
	.st1{fill:#E48B6D;}
	.st2{fill:#DF7253;}
	.st3{fill:#F2634B;}
	.st4{fill:url(#SVGID_1_);}
	.st5{fill:#27235E;}
	.st6{fill:#C0C2C4;}
</style>
<g>
	<polygon class="st0" points="226.7,61.9 174.2,79.1 168.7,16.4 221.4,0 	"/>
	<polygon class="st1" points="226.7,61.9 174.2,79.1 168.7,16.4 221.6,1.3 	"/>
	<polygon class="st0" points="229.2,68 174.2,79.1 168.8,17 223.7,4.2 	"/>
	<polygon class="st2" points="229.1,67.3 174.1,78.5 168.7,16.4 223.9,6.3 	"/>
	<polygon class="st0" points="231.6,74.1 174.2,79.1 168.8,17 226,9.3 	"/>
	<polygon class="st3" points="231.6,74.1 179.4,78.6 174.2,79.1 168.7,16.4 212.6,12.6 226.1,11.4 	"/>
	<linearGradient id="SVGID_1_" gradientUnits="userSpaceOnUse" x1="182.0061" y1="44.4412" x2="234.1902" y2="45.867">
		<stop  offset="0" style="stop-color:#F48267"/>
		<stop  offset="1" style="stop-color:#F2634B"/>
	</linearGradient>
	<path class="st4" d="M231.6,74.1l-52.2,4.6c2.1-3.2,4.6-6.6,7.6-10.4c10.3-12.7,19.4-36.8,25.5-55.7l13.6-1.2L231.6,74.1z"/>
	<g>
		<path class="st5" d="M181.9,44.4l15.6-1.4l-1.4-15.6l5.3-0.5l1.4,15.6l15.6-1.4l0.5,5.3l-15.6,1.4l1.4,15.6l-5.3,0.5L198,48.3
			l-15.6,1.4L181.9,44.4z"/>
	</g>
	<g>
		<g>
			<path class="st0" d="M0,10.7h30.4v9.1H9.9v9.1h19.4V38H9.9v9.8h21.7v9.1H0V10.7z"/>
			<path class="st0" d="M53.1,34.4c-1.4-1.7-3.2-2.6-5.5-2.6c-0.8,0-1.6,0.2-2.3,0.6c-0.8,0.4-1.1,1-1.1,2c0,0.8,0.4,1.3,1.2,1.7
				c0.8,0.4,1.8,0.7,3,0.9c1.2,0.3,2.5,0.6,3.9,0.9c1.4,0.3,2.7,0.8,3.9,1.5c1.2,0.7,2.2,1.6,3,2.7c0.8,1.2,1.2,2.7,1.2,4.6
				c0,2-0.4,3.6-1.3,4.9c-0.9,1.3-2,2.3-3.3,3.1c-1.3,0.8-2.9,1.3-4.6,1.6c-1.7,0.3-3.3,0.5-5,0.5c-2.1,0-4.3-0.3-6.5-0.9
				c-2.2-0.6-4-1.7-5.6-3.3l5.8-6.4c0.9,1.1,1.9,1.9,2.9,2.5c1.1,0.6,2.3,0.9,3.8,0.9c1.1,0,2.1-0.2,3-0.5c0.9-0.3,1.3-0.9,1.3-1.7
				c0-0.8-0.4-1.4-1.2-1.8c-0.8-0.4-1.8-0.7-3-1c-1.2-0.3-2.5-0.6-3.9-0.9c-1.4-0.3-2.7-0.8-3.9-1.4c-1.2-0.6-2.2-1.5-3-2.7
				c-0.8-1.2-1.2-2.7-1.2-4.6c0-1.8,0.4-3.4,1.1-4.7c0.7-1.3,1.7-2.4,2.9-3.2c1.2-0.8,2.6-1.5,4.1-1.9c1.6-0.4,3.1-0.6,4.7-0.6
				c2,0,4.1,0.3,6.1,0.9c2.1,0.6,3.8,1.6,5.2,3.2L53.1,34.4z"/>
			<path class="st0" d="M83.2,35.3c-0.5-0.7-1.1-1.2-2-1.7c-0.8-0.4-1.7-0.7-2.7-0.7c-2.4,0-4.3,0.7-5.6,2.1c-1.3,1.4-2,3.3-2,5.6
				c0,2.3,0.7,4.2,2,5.6c1.3,1.4,3.2,2.1,5.6,2.1c1.1,0,2-0.2,2.7-0.7c0.8-0.5,1.4-1,2-1.6l6.3,6.6c-1.5,1.5-3.2,2.6-5.2,3.2
				c-2,0.6-3.9,0.9-5.7,0.9c-2.4,0-4.6-0.4-6.7-1.1c-2.1-0.8-3.9-1.8-5.4-3.3c-1.5-1.4-2.7-3.1-3.6-5.1c-0.9-2-1.3-4.2-1.3-6.6
				c0-2.4,0.4-4.7,1.3-6.6c0.9-2,2.1-3.7,3.6-5.1c1.5-1.4,3.3-2.5,5.4-3.3c2.1-0.8,4.3-1.1,6.7-1.1c1.8,0,3.7,0.3,5.7,0.9
				c2,0.6,3.7,1.7,5.2,3.2L83.2,35.3z"/>
			<path class="st0" d="M89.2,40.7c0-2.4,0.4-4.7,1.3-6.6c0.9-2,2.1-3.7,3.6-5.1c1.5-1.4,3.3-2.5,5.4-3.3c2.1-0.8,4.3-1.1,6.7-1.1
				c2.4,0,4.6,0.4,6.7,1.1c2.1,0.8,3.9,1.8,5.4,3.3c1.5,1.4,2.7,3.1,3.6,5.1c0.9,2,1.3,4.2,1.3,6.6c0,2.4-0.4,4.7-1.3,6.6
				c-0.9,2-2.1,3.7-3.6,5.1c-1.5,1.4-3.4,2.5-5.4,3.3c-2.1,0.8-4.3,1.1-6.7,1.1c-2.4,0-4.6-0.4-6.7-1.1c-2.1-0.8-3.9-1.8-5.4-3.3
				c-1.5-1.4-2.7-3.1-3.6-5.1C89.7,45.4,89.2,43.2,89.2,40.7z M98.7,40.7c0,2.3,0.7,4.2,2,5.6c1.3,1.4,3.2,2.1,5.6,2.1
				c2.4,0,4.3-0.7,5.6-2.1c1.3-1.4,2-3.3,2-5.6c0-2.3-0.7-4.2-2-5.6c-1.3-1.4-3.2-2.1-5.6-2.1c-2.4,0-4.3,0.7-5.6,2.1
				C99.4,36.5,98.7,38.4,98.7,40.7z"/>
			<path class="st0" d="M126.5,10.7h9.5v46.1h-9.5V10.7z"/>
			<path class="st0" d="M159.6,52.2h-0.1c-1.1,1.6-2.5,2.8-4.2,3.5c-1.7,0.7-3.6,1.1-5.5,1.1c-1.4,0-2.8-0.2-4.1-0.6
				c-1.3-0.4-2.5-1-3.5-1.8c-1-0.8-1.8-1.8-2.4-3c-0.6-1.2-0.9-2.5-0.9-4.1c0-1.8,0.3-3.3,1-4.5c0.7-1.2,1.5-2.2,2.7-3
				c1.1-0.8,2.4-1.4,3.8-1.9c1.4-0.4,2.9-0.8,4.5-1c1.5-0.2,3.1-0.3,4.6-0.4c1.5,0,3-0.1,4.3-0.1c0-1.7-0.6-3-1.8-4
				c-1.2-1-2.6-1.5-4.3-1.5c-1.6,0-3,0.3-4.3,1c-1.3,0.7-2.4,1.5-3.4,2.7l-5.1-5.2c1.8-1.6,3.8-2.9,6.2-3.7c2.4-0.8,4.8-1.2,7.3-1.2
				c2.8,0,5.1,0.3,6.9,1c1.8,0.7,3.2,1.7,4.3,3.1c1.1,1.3,1.8,3,2.2,5c0.4,2,0.6,4.2,0.6,6.8v16.4h-8.7V52.2z M157.2,42.6
				c-0.7,0-1.6,0-2.7,0.1c-1.1,0.1-2.1,0.2-3.1,0.5c-1,0.3-1.8,0.7-2.5,1.3c-0.7,0.6-1,1.4-1,2.5c0,1.1,0.5,2,1.5,2.5
				c1,0.5,2,0.8,3,0.8c0.9,0,1.8-0.1,2.7-0.4c0.9-0.3,1.6-0.6,2.3-1.1c0.7-0.5,1.2-1.1,1.6-1.8c0.4-0.7,0.6-1.6,0.6-2.5v-2H157.2z"
				/>
		</g>
	</g>
	<g>
		<path class="st3" d="M13.6,65.2l-1.4,1c-0.7-1.2-2.6-2-4-2c-3.8,0-6.4,3-6.4,6.7c0,3.8,2.6,6.7,6.4,6.7c2,0,3.4-0.8,4.5-2.3
			l1.3,0.9c-1.1,1.7-3.4,2.9-5.8,2.9c-4.6,0-8.1-3.5-8.1-8.2c0-4.6,3.5-8.2,8.1-8.2C10.4,62.8,12.3,63.7,13.6,65.2z"/>
		<path class="st3" d="M21.1,78.7l6.8-15.6h1.5l6.8,15.6h-1.8l-1.7-4.1h-8l-1.7,4.1H21.1z M25.2,73.2H32L28.6,65L25.2,73.2z"/>
		<path class="st3" d="M44.9,78.7V63.2h4.9c3.1,0,5,1.4,5,4.2c0,2.2-1.4,3.8-4,4l4.5,7.4h-1.9l-4.3-7.2h-2.6v7.2H44.9z M49.4,70.1
			c2.4,0,3.7-1,3.7-2.7c0-1.8-1.4-2.7-3.7-2.7h-2.9v5.4H49.4z"/>
		<path class="st3" d="M66.1,78.7h-1.6V63.2h1.6V78.7z"/>
		<path class="st3" d="M74.8,78.7l6.8-15.6h1.5l6.8,15.6H88l-1.7-4.1h-8l-1.7,4.1H74.8z M79,73.2h6.8L82.4,65L79,73.2z"/>
		<path class="st3" d="M111,65.2l-1.4,1c-0.7-1.2-2.6-2-4-2c-3.8,0-6.4,3-6.4,6.7c0,3.8,2.6,6.7,6.4,6.7c2,0,3.4-0.8,4.5-2.3
			l1.3,0.9c-1.1,1.7-3.4,2.9-5.8,2.9c-4.6,0-8.1-3.5-8.1-8.2c0-4.6,3.5-8.2,8.1-8.2C107.8,62.8,109.8,63.7,111,65.2z"/>
		<path class="st3" d="M122.3,78.7h-1.6V63.2h1.6V78.7z"/>
		<path class="st3" d="M145.5,65.2l-1.4,1c-0.7-1.2-2.6-2-4-2c-3.8,0-6.4,3-6.4,6.7c0,3.8,2.6,6.7,6.4,6.7c2,0,3.4-0.8,4.5-2.3
			l1.3,0.9c-1.1,1.7-3.4,2.9-5.8,2.9c-4.6,0-8.1-3.5-8.1-8.2c0-4.6,3.5-8.2,8.1-8.2C142.3,62.8,144.3,63.7,145.5,65.2z"/>
		<path class="st3" d="M153,78.7l6.8-15.6h1.5l6.8,15.6h-1.8l-1.7-4.1h-8l-1.7,4.1H153z M157.2,73.2h6.8l-3.4-8.2L157.2,73.2z"/>
	</g>
	<g>
		<path class="st6" d="M34.5,21.8v-11h3.3c2.2,0,3.5,1,3.5,2.9s-1.3,2.9-3.5,2.9h-2.2v5.1H34.5z M35.6,15.7h1.9
			c1.6,0,2.6-0.7,2.6-1.9c0-1.3-1-1.9-2.6-1.9h-1.9V15.7z"/>
		<path class="st6" d="M43.7,21.8v-11h3.5c2.2,0,3.5,1,3.5,2.9c0,1.6-1,2.7-2.8,2.8l3.1,5.2h-1.4l-3-5.1h-1.9v5.1H43.7z M46.9,15.7
			c1.7,0,2.6-0.7,2.6-1.9c0-1.3-1-1.9-2.6-1.9h-2.1v3.8H46.9z"/>
		<path class="st6" d="M63.6,16.3c0,3.3-2.4,5.8-5.7,5.8s-5.7-2.5-5.7-5.8c0-3.3,2.4-5.8,5.7-5.8C61.2,10.6,63.6,13.1,63.6,16.3z
			 M57.9,21.1c2.7,0,4.5-2.1,4.5-4.7c0-2.6-1.8-4.7-4.5-4.7c-2.6,0-4.5,2.1-4.5,4.7C53.4,19,55.2,21.1,57.9,21.1z"/>
		<path class="st6" d="M74.8,12L74,12.9c-0.8-0.8-1.8-1.3-3.1-1.3c-2.7,0-4.5,2.1-4.5,4.7c0,2.7,1.9,4.7,4.5,4.7
			c1.1,0,2.2-0.3,3-0.8v-3.7h-2.6v-1H75V21c-1.3,0.7-2.8,1.1-4.2,1.1c-3.3,0-5.7-2.5-5.7-5.8c0-3.3,2.4-5.8,5.7-5.8
			C72.6,10.6,73.8,11.1,74.8,12z"/>
		<path class="st6" d="M77.6,21.8v-11h3.5c2.2,0,3.5,1,3.5,2.9c0,1.6-1,2.7-2.8,2.8l3.1,5.2h-1.4l-3-5.1h-1.9v5.1H77.6z M80.8,15.7
			c1.7,0,2.6-0.7,2.6-1.9c0-1.3-1-1.9-2.6-1.9h-2.1v3.8H80.8z"/>
		<path class="st6" d="M85.9,21.8l4.8-11h1.1l4.8,11h-1.3l-1.2-2.9h-5.6l-1.2,2.9H85.9z M88.9,17.9h4.8l-2.4-5.8L88.9,17.9z"/>
		<path class="st6" d="M98.7,10.9h1.7l3.7,8.9l3.7-8.9h1.7v11h-1.1v-9.5h0l-4,9.5h-0.6l-4-9.5h0v9.5h-1.1V10.9z"/>
		<path class="st6" d="M111.6,21.8l4.8-11h1.1l4.8,11h-1.3l-1.2-2.9h-5.6l-1.2,2.9H111.6z M114.5,17.9h4.8l-2.4-5.8L114.5,17.9z"/>
	</g>
</g>
</svg>
